<?xml version="1.0" encoding="utf-8"?>
<!-- Generator: Adobe Illustrator 18.1.0, SVG Export Plug-In . SVG Version: 6.00 Build 0)  -->
<svg version="1.1" xmlns="http://www.w3.org/2000/svg" xmlns:xlink="http://www.w3.org/1999/xlink" x="0px" y="0px" width="960px"
	 height="960px" viewBox="174 -84 960 960" enable-background="new 174 -84 960 960" xml:space="preserve">
<g id="Athlete_Hanging_Of_Rings_Couple_To_Practice_Gymnastics">
</g>
<g id="Water_Volleyball_Sportive_Symbol_Of_Floating_Ball">
</g>
<g id="Person_Rowing_On_A_Kayak">
	<g>
		<path d="M259.698,758.36c27.06-21.619,65.583-77.74,82.955-104.17c5.118-7.782,9.962-21.651,10.963-30.902l4.569-41.639
			l185.14-221.418v84.925l63.742-42.543c28.529-17.163,69.506-16.42,95.645-0.759l65.082,43.399v-82.099L950.48,581.648
			l4.569,41.639c1.001,9.251,5.829,23.12,10.963,30.902c17.372,26.414,55.895,82.552,82.955,104.17
			c7.266,5.812,22.006,7.056,30.693,3.697c14.16-5.506,34.051-17.082,44.125-40.396c3.665-8.541-0.081-21.812-6.168-28.836
			l-78.531-90.979c-6.087-7.056-18.067-15.403-26.769-18.664l-40.315-15.161L767.794,323.79v-22.119
			c0-40.008-32.436-72.445-72.445-72.445h-79.581c-40.025,0-72.445,32.436-72.445,72.445v19.197L336.663,568.006l-40.315,15.161
			c-8.702,3.261-20.682,11.625-26.769,18.664l-78.531,90.979c-6.087,7.039-9.816,20.295-6.151,28.836
			c10.059,23.298,29.95,34.89,44.125,40.396C237.691,765.4,252.432,764.173,259.698,758.36z"/>
		<path d="M687.858,426.733c-17.873-10.704-46.822-10.704-64.695,0l-220.708,147.23c-17.857,10.704-29.336,36.053-22.604,55.75
			c21.99,64.049,88.977,175.339,275.651,177.228c187.319,1.889,254.097-112.146,275.845-177.164
			c6.62-19.746-4.957-45.11-22.813-55.799L687.858,426.733z"/>
		<circle cx="655.551" cy="113.415" r="101.313"/>
	</g>
</g>
</svg>
